<svg width="100" height="100" viewBox="0 0 100 100" fill="none" xmlns="http://www.w3.org/2000/svg">
  <rect width="100" height="100" rx="10" fill="#F7F8FA"/>
  <path d="M20 50C20 33.431 33.431 20 50 20C66.569 20 80 33.431 80 50C80 66.569 66.569 80 50 80C33.431 80 20 66.569 20 50Z" fill="#FF6A00"/>
  <path d="M50 38C43.373 38 38 43.373 38 50C38 56.627 43.373 62 50 62C56.627 62 62 56.627 62 50C62 43.373 56.627 38 50 38ZM50 56C46.686 56 44 53.314 44 50C44 46.686 46.686 44 50 44C53.314 44 56 46.686 56 50C56 53.314 53.314 56 50 56Z" fill="white"/>
  <path d="M65 40C65 42.7614 62.7614 45 60 45C57.2386 45 55 42.7614 55 40C55 37.2386 57.2386 35 60 35C62.7614 35 65 37.2386 65 40Z" fill="white"/>
</svg>
