<svg width="100" height="100" viewBox="0 0 100 100" fill="none" xmlns="http://www.w3.org/2000/svg">
  <rect width="100" height="100" rx="10" fill="#F7F8FA"/>
  <path d="M35.5 36C32.4624 36 30 38.6863 30 42C30 45.3137 32.4624 48 35.5 48C38.5376 48 41 45.3137 41 42C41 38.6863 38.5376 36 35.5 36Z" fill="#2529D8"/>
  <path d="M64.5 36C61.4624 36 59 38.6863 59 42C59 45.3137 61.4624 48 64.5 48C67.5376 48 70 45.3137 70 42C70 38.6863 67.5376 36 64.5 36Z" fill="#2529D8"/>
  <path d="M35.5 52C32.4624 52 30 54.6863 30 58C30 61.3137 32.4624 64 35.5 64C38.5376 64 41 61.3137 41 58C41 54.6863 38.5376 52 35.5 52Z" fill="#2529D8"/>
  <path d="M64.5 52C61.4624 52 59 54.6863 59 58C59 61.3137 61.4624 64 64.5 64C67.5376 64 70 61.3137 70 58C70 54.6863 67.5376 52 64.5 52Z" fill="#2529D8"/>
  <path d="M50 30C46.6863 30 44 32.6863 44 36C44 39.3137 46.6863 42 50 42C53.3137 42 56 39.3137 56 36C56 32.6863 53.3137 30 50 30Z" fill="#2529D8"/>
  <path d="M50 58C46.6863 58 44 60.6863 44 64C44 67.3137 46.6863 70 50 70C53.3137 70 56 67.3137 56 64C56 60.6863 53.3137 58 50 58Z" fill="#2529D8"/>
</svg>
