<svg width="100" height="100" viewBox="0 0 100 100" fill="none" xmlns="http://www.w3.org/2000/svg">
  <rect width="100" height="100" rx="10" fill="#F7F8FA"/>
  <path d="M50 20C33.431 20 20 33.431 20 50C20 66.569 33.431 80 50 80C66.569 80 80 66.569 80 50C80 33.431 66.569 20 50 20Z" fill="#24F5EE"/>
  <path d="M36 44.5V55.5C36 61.023 40.477 65.5 46 65.5H54C59.523 65.5 64 61.023 64 55.5V44.5C64 38.977 59.523 34.5 54 34.5H46C40.477 34.5 36 38.977 36 44.5Z" fill="#FE2C55"/>
  <path d="M43 47.5C43 45.015 44.5 43 47 43H53C55.5 43 57 45.015 57 47.5V52.5C57 54.985 55.5 57 53 57H47C44.5 57 43 54.985 43 52.5V47.5Z" fill="white"/>
</svg>
