<svg width="100" height="100" viewBox="0 0 100 100" fill="none" xmlns="http://www.w3.org/2000/svg">
  <rect width="100" height="100" rx="10" fill="#F7F8FA"/>
  <path d="M27 36C27 32.134 30.134 29 34 29H66C69.866 29 73 32.134 73 36V64C73 67.866 69.866 71 66 71H34C30.134 71 27 67.866 27 64V36Z" fill="#3560F6"/>
  <path d="M50 40C44.477 40 40 44.477 40 50C40 55.523 44.477 60 50 60H61V50C61 44.477 56.523 40 51 40H50Z" fill="white"/>
  <path d="M50 46C47.791 46 46 47.791 46 50C46 52.209 47.791 54 50 54C52.209 54 54 52.209 54 50C54 47.791 52.209 46 50 46Z" fill="#3560F6"/>
</svg>
